<svg xmlns="http://www.w3.org/2000/svg" viewBox="0 0 720 720"><defs><style>.cls-2{fill:#fff}</style></defs><path fill="#fd9d24" d="M-1.08-1.08h722.16v722.16H-1.08z" id="goal_background" data-name="goal background"/><g id="ENG_text_graphics" data-name="ENG text &amp; graphics"><path class="cls-2" d="M50.12 88.93c-4.12 2.21-15.81 5.44-19.89 7.48V76.86c5.44-2.21 20.57-9.52 25.67-15.13h20.57v137.7H50.12z"/><path class="cls-2" d="M86.33 88.93c-4.08 2.21-15.81 5.44-19.89 7.48V76.86c5.44-2.21 20.56-9.52 25.67-15.13h20.57v137.7H86.33zM192.85 97.44V78.66c0-10.79 3.45-17.62 15-17.62 10.79 0 14.24 6 14.24 15.15v4.42h-9.23v-4.55c0-4.42-.07-8-4.94-8s-5.4 3.77-5.4 8.58v22.82c0 5.72 1.17 8.45 5.4 8.45 4.74 0 4.94-3.71 4.94-8.39v-4.74h9.23V99c0 9.3-3.12 16-14.24 16-11.55 0-15-7.29-15-17.56zM226.39 61.63h9.49v52.65h-9.49zM241.34 61.63h12.42c12.8 0 16.7 5.13 16.7 16.38v19.17c0 11.57-4 17.1-16.31 17.1h-12.81zm12.55 45.95c6.56 0 6.82-3.51 6.82-10.07V77.36c0-6.31-.65-8.91-6.95-8.91h-2.86v39.13zM282.36 61.63h10.27l10.53 52.65h-8.9l-2.09-12.16H283l-2.15 12.16h-9zM291.13 96l-3.57-22.1L284 96zM305.76 61.63h12.41c12.81 0 16.71 5.13 16.71 16.38v19.17c0 11.57-4 17.1-16.32 17.1h-12.8zm12.54 45.95c6.57 0 6.83-3.51 6.83-10.07V77.36c0-6.31-.65-8.91-7-8.91h-2.86v39.13zM339.3 61.63h22.1v6.76h-12.55v15.14h9.88v6.7h-9.88v17.48h12.68v6.57H339.3zM363.15 98.94l8.26-1.63c.26 6.24 1.75 10.27 6 10.27 3.05 0 4.35-2.08 4.35-4.94 0-4.55-2.34-7.08-5.78-10.07l-6.63-5.79c-3.77-3.25-6.11-6.89-6.11-12.74 0-8.32 5.2-13 13.58-13 9.88 0 12.68 6.63 13.2 14.3l-8.26 1.43c-.19-4.94-.91-8.64-5.13-8.64-2.86 0-4.42 2.14-4.42 4.94 0 3.57 1.49 5.52 4.29 7.93l6.5 5.78c4.29 3.71 7.87 8.32 7.87 15.28 0 7.6-5.33 12.93-13.2 12.93-9.58.01-14.13-5.59-14.52-16.05zM407 61.63h22.1v6.76h-12.52v15.14h9.88v6.7h-9.88v17.48h12.68v6.57H407zM192.85 183.44v-18.78c0-10.79 3.45-17.62 15-17.62 10.79 0 14.24 6 14.24 15.15v4.42h-9.23v-4.55c0-4.42-.07-8-4.94-8s-5.4 3.77-5.4 8.58v22.82c0 5.72 1.17 8.45 5.4 8.45 4.74 0 4.94-3.71 4.94-8.39v-4.74h9.23V185c0 9.3-3.12 16-14.24 16-11.55 0-15-7.29-15-17.56zM225.29 183.77V164c0-10.66 3.9-17 15.21-17s15.15 6.31 15.15 17v19.76c0 10.59-3.9 17.22-15.15 17.22s-15.21-6.55-15.21-17.21zM245.9 186v-24.2c0-4.42-.72-7.74-5.4-7.74s-5.5 3.32-5.5 7.74V186c0 4.36.72 7.87 5.46 7.87s5.44-3.47 5.44-7.87zM260.84 147.63h10l7.47 36.46 7.69-36.46h9.68l1 52.65h-7.15l-.78-36.6-7.48 36.6h-5.78l-7.61-36.73-.71 36.73h-7.22zM301.4 183.25v-35.62h9.36v36.72c0 5 .59 9.49 5.46 9.49s5.53-4.48 5.53-9.49v-36.72h9.3v35.62c0 11.05-3.06 17.74-14.83 17.74s-14.82-6.69-14.82-17.74zM335.92 147.63h6.69l12.81 30v-30h7.93v52.65H357l-12.87-31.46v31.46h-8.19zM368.94 147.63h9.49v52.65h-9.49zM383.89 147.63h12.41c12.81 0 16.71 5.13 16.71 16.38v19.17c0 11.57-4 17.1-16.32 17.1h-12.8zm12.54 46c6.57 0 6.83-3.51 6.83-10.07v-20.2c0-6.31-.65-8.91-7-8.91h-2.86v39.13zM424.9 147.63h10.27l10.53 52.65h-8.9l-2.08-12.16h-9.17l-2.14 12.16h-9zm8.78 34.37l-3.58-22.1-3.57 22.1zM448.3 147.63h12.42c12.8 0 16.7 5.13 16.7 16.38v19.17c0 11.57-4 17.1-16.31 17.1H448.3zm12.55 46c6.56 0 6.82-3.51 6.82-10.07v-20.2c0-6.31-.65-8.91-6.95-8.91h-2.86v39.13zM481.84 147.63h22.1v6.76H491.4v15.14h9.88v6.7h-9.88v17.48h12.67v6.57h-22.23zM505.7 184.94l8.25-1.63c.26 6.24 1.76 10.27 6 10.27 3.06 0 4.36-2.08 4.36-4.94 0-4.55-2.34-7.08-5.79-10.07l-6.63-5.79c-3.77-3.25-6.11-6.89-6.11-12.74 0-8.32 5.2-13 13.59-13 9.88 0 12.67 6.63 13.19 14.3l-8.25 1.43c-.2-4.94-.91-8.64-5.14-8.64-2.86 0-4.42 2.14-4.42 4.94 0 3.57 1.5 5.52 4.29 7.93l6.57 5.78c4.29 3.71 7.86 8.32 7.86 15.28 0 7.6-5.33 12.93-13.19 12.93-9.64.01-14.19-5.59-14.58-16.05zM192.4 270.94l8.26-1.63c.26 6.24 1.75 10.27 6 10.27 3.06 0 4.36-2.08 4.36-4.94 0-4.55-2.34-7.08-5.78-10.07l-6.63-5.79c-3.78-3.25-6.12-6.89-6.12-12.74 0-8.32 5.21-13 13.59-13 9.88 0 12.68 6.63 13.2 14.3l-8.28 1.43c-.19-4.94-.91-8.64-5.13-8.64-2.86 0-4.43 2.14-4.43 4.94 0 3.57 1.5 5.52 4.3 7.93l6.56 5.78c4.29 3.71 7.87 8.32 7.87 15.28 0 7.6-5.33 12.93-13.2 12.93-9.63.01-14.18-5.59-14.57-16.05zM222.75 269.25v-35.62h9.36v36.72c0 5 .59 9.49 5.46 9.49s5.53-4.48 5.53-9.49v-36.72h9.3v35.62c0 11.05-3.06 17.74-14.83 17.74s-14.82-6.69-14.82-17.74zM256 270.94l8.25-1.63c.26 6.24 1.76 10.27 6 10.27 3.06 0 4.36-2.08 4.36-4.94 0-4.55-2.34-7.08-5.79-10.07l-6.63-5.79c-3.77-3.25-6.11-6.89-6.11-12.74 0-8.32 5.2-13 13.59-13 9.88 0 12.68 6.63 13.19 14.3l-8.25 1.43c-.2-4.94-.91-8.64-5.14-8.64-2.86 0-4.42 2.14-4.42 4.94 0 3.57 1.5 5.52 4.29 7.93l6.57 5.78c4.29 3.71 7.86 8.32 7.86 15.28 0 7.6-5.33 12.93-13.19 12.93-9.67.01-14.22-5.59-14.58-16.05zM292 240.71h-8.39v-7.08h26.2v7.08h-8.21v45.57H292zM311.93 233.63H334v6.76h-12.51v15.14h9.88v6.7h-9.88v17.48h12.67v6.57h-22.23zM337.09 233.63h6.69l12.81 30v-30h7.93v52.65h-6.37l-12.87-31.46v31.46h-8.19zM375.11 240.71h-8.38v-7.08h26.19v7.08h-8.19v45.57h-9.62zM401.63 233.63h10.27l10.53 52.65h-8.9l-2.08-12.16h-9.17l-2.14 12.16h-9zm8.78 34.37l-3.58-22.1-3.57 22.1zm-2.34-51h9l-7.74 13h-5.13zM420.61 233.63h8.45l7 37.24 6.56-37.24h8.65l-10.6 52.65h-9.42zM454 233.63h22.1v6.76h-12.59v15.14h9.88v6.7h-9.88v17.48h12.68v6.57H454zM479.37 233.63h9.49v52.65h-9.49zM493 270.94l8.25-1.63c.26 6.24 1.76 10.27 6 10.27 3.06 0 4.36-2.08 4.36-4.94 0-4.55-2.34-7.08-5.79-10.07l-6.63-5.79c-3.77-3.25-6.11-6.89-6.11-12.74 0-8.32 5.2-13 13.59-13 9.88 0 12.67 6.63 13.2 14.3l-8.26 1.43c-.2-4.94-.91-8.64-5.14-8.64-2.86 0-4.42 2.14-4.42 4.94 0 3.57 1.5 5.52 4.29 7.93l6.57 5.78c4.29 3.71 7.86 8.32 7.86 15.28 0 7.6-5.33 12.93-13.19 12.93-9.58.01-14.17-5.59-14.58-16.05zM166.8 566h94.74a2.31 2.31 0 001.71-3.87l-.13-.14L216 501l-.46-.5a2.32 2.32 0 00-1.72-.76 2.37 2.37 0 00-1.52.6l-.29.33-.44.49-46 60.35-.71.86a2.33 2.33 0 001.94 3.63zM261.25 574.61h-94.92a2.33 2.33 0 00-2.33 2.33v74.28a2.33 2.33 0 002.33 2.34h30.55v-46.74a2.32 2.32 0 012.32-2.33h28.36a2.33 2.33 0 012.33 2.33v46.74h31.36a2.34 2.34 0 002.33-2.34v-74.28a2.33 2.33 0 00-2.33-2.33zM589.33 555.17h-94a2.25 2.25 0 00-2.3 2.23v94.87a2.27 2.27 0 002.3 2.23h94a2.26 2.26 0 002.3-2.23V557.4a2.25 2.25 0 00-2.3-2.23m-51.41 61.93a2.26 2.26 0 01-2.29 2.25h-28.07a2.28 2.28 0 01-2.31-2.25v-17.05a2.27 2.27 0 012.31-2.24h28.07a2.25 2.25 0 012.29 2.24zm0-31.52a2.27 2.27 0 01-2.29 2.24h-28.07a2.28 2.28 0 01-2.31-2.24v-17.07a2.28 2.28 0 012.31-2.24h28.07a2.26 2.26 0 012.29 2.24zm42.9 31.52a2.26 2.26 0 01-2.3 2.25h-28.06a2.26 2.26 0 01-2.3-2.25v-17.05a2.26 2.26 0 012.3-2.24h28.06a2.26 2.26 0 012.3 2.24zm0-31.52a2.27 2.27 0 01-2.3 2.24h-28.06a2.27 2.27 0 01-2.3-2.24v-17.07a2.26 2.26 0 012.3-2.24h28.06a2.26 2.26 0 012.3 2.24zM370.93 335H279a2.24 2.24 0 00-2.24 2.25v314.18a2.25 2.25 0 002.24 2.25h91.95a2.27 2.27 0 002.26-2.25V337.2a2.26 2.26 0 00-2.26-2.25m-54.7 282.93a1.21 1.21 0 01-1.2 1.21H294a1.21 1.21 0 01-1.2-1.21v-23.46a1.2 1.2 0 011.2-1.2h21a1.2 1.2 0 011.2 1.2zm0-53.88a1.19 1.19 0 01-1.2 1.2H294a1.19 1.19 0 01-1.2-1.2v-23.46a1.19 1.19 0 011.2-1.2h21a1.19 1.19 0 011.2 1.2zm0-53.87a1.2 1.2 0 01-1.2 1.2H294a1.2 1.2 0 01-1.2-1.2v-23.47a1.21 1.21 0 011.2-1.21h21a1.21 1.21 0 011.2 1.21zm0-53.89a1.21 1.21 0 01-1.2 1.21H294a1.21 1.21 0 01-1.2-1.21v-23.47a1.19 1.19 0 011.2-1.19h21a1.19 1.19 0 011.2 1.19zm0-53.87a1.2 1.2 0 01-1.2 1.2H294a1.2 1.2 0 01-1.2-1.2V378.9a1.2 1.2 0 011.2-1.2h21a1.2 1.2 0 011.2 1.2zm41.29 215.51a1.21 1.21 0 01-1.22 1.21h-21a1.21 1.21 0 01-1.21-1.21v-23.46a1.2 1.2 0 011.21-1.2h21a1.2 1.2 0 011.22 1.2zm0-53.88a1.2 1.2 0 01-1.22 1.2h-21a1.19 1.19 0 01-1.21-1.2v-23.46a1.19 1.19 0 011.21-1.2h21a1.2 1.2 0 011.22 1.2zm0-53.87a1.21 1.21 0 01-1.22 1.2h-21a1.21 1.21 0 01-1.21-1.2v-23.47a1.21 1.21 0 011.21-1.21h21a1.21 1.21 0 011.22 1.21zm0-53.89a1.21 1.21 0 01-1.22 1.21h-21a1.21 1.21 0 01-1.21-1.21v-23.47a1.2 1.2 0 011.21-1.19h21a1.2 1.2 0 011.22 1.19zm0-53.87a1.21 1.21 0 01-1.22 1.2h-21a1.21 1.21 0 01-1.21-1.2V378.9a1.2 1.2 0 011.21-1.2h21a1.2 1.2 0 011.22 1.2zM591.53 545.62a1.88 1.88 0 01-1.89 1.89h-94.57a1.89 1.89 0 01-1.89-1.89v-18.91a1.89 1.89 0 011.89-1.89h94.57a1.89 1.89 0 011.89 1.89zM482 394.29a2.35 2.35 0 00-3.63-1.33l-.17.12-.77 1-90.38 114.61-.42.56a2.62 2.62 0 00-.78 1.79V651.9a2.24 2.24 0 002.25 2.24H480a2.24 2.24 0 002.25-2.24V395.23a2.24 2.24 0 00-.25-.94zm-38.05 62.25l.65-.81c6.18-7.94 16.6-20.76 21.68-27l.67-.8a2.58 2.58 0 014.53 1.15v29a2.61 2.61 0 01-2.5 2.59h-23.05a2.6 2.6 0 01-2-4.14zm-14.3 160.54a2.24 2.24 0 01-2.24 2.25H400a2.25 2.25 0 01-2.25-2.25v-17.15a2.24 2.24 0 012.25-2.24h27.4a2.24 2.24 0 012.24 2.24zm0-31.69a2.24 2.24 0 01-2.24 2.25H400a2.25 2.25 0 01-2.25-2.25v-17.15A2.24 2.24 0 01400 566h27.4a2.23 2.23 0 012.24 2.25zm0-31.69a2.24 2.24 0 01-2.24 2.24H400a2.25 2.25 0 01-2.25-2.24v-17.16a2.25 2.25 0 012.25-2.25h27.4a2.24 2.24 0 012.24 2.25zm.08-69.46V522a2.26 2.26 0 01-2.25 2.25h-27.4a2.26 2.26 0 01-2.27-2.25v-4.76a2.38 2.38 0 01.18-.84 1.55 1.55 0 01.13-.26 3 3 0 01.2-.29c.07-.11.17-.25.26-.37 3.5-5 19.31-24.49 25.95-32.63l.66-.8a2.63 2.63 0 012-1 2.58 2.58 0 012.51 2.11zm41.81 132.84a2.24 2.24 0 01-2.24 2.25h-27.4a2.25 2.25 0 01-2.26-2.25v-17.15a2.25 2.25 0 012.26-2.24h27.4a2.24 2.24 0 012.24 2.24zm0-31.69a2.24 2.24 0 01-2.24 2.25h-27.4a2.25 2.25 0 01-2.26-2.25v-17.15a2.24 2.24 0 012.26-2.25h27.4a2.24 2.24 0 012.24 2.25zm0-31.69a2.25 2.25 0 01-2.24 2.24h-27.4a2.25 2.25 0 01-2.26-2.24v-17.16a2.25 2.25 0 012.26-2.25h27.4a2.24 2.24 0 012.24 2.25zm0-31.7a2.24 2.24 0 01-2.24 2.24h-27.4a2.25 2.25 0 01-2.26-2.24v-17.16a2.25 2.25 0 012.26-2.24h27.4a2.24 2.24 0 012.24 2.24zm0-31.7a2.24 2.24 0 01-2.24 2.24h-27.4a2.25 2.25 0 01-2.26-2.24v-17.16a2.25 2.25 0 012.26-2.25h27.4a2.24 2.24 0 012.24 2.25z"/></g></svg>